<svg xmlns="http://www.w3.org/2000/svg" viewBox="0 0 24 24" fill="none">
<path d="M18.47 6.87a.24.24 0 0 0 0-.42l-1.59-.92a.28.28 0 0 0-.25 0l-1.09.63 2.08 1.2Zm-9.73 3.35v1.88a.24.24 0 0 0 .36.21l8.15-4.73-2.08-1.21L8.86 10a.22.22 0 0 0-.12.2m1.56 4.62 1.67 1a.25.25 0 0 0 .24 0l6.25-3.61V9.66L10.3 14.4a.24.24 0 0 0 0 .42m9.61-3.49a.22.22 0 0 0 .12-.2v-2a.24.24 0 0 0-.36-.13l-.84.49V12Z" fill="#BE9A30"/>
<path d="m12 21.25 2.31-1.34 5.7-3.29v-2.66l-1.18.68-.37.21-4.38 2.53-2.08 1.2-5.7-3.29V8.71l6.46-3.73.36-.21 1.19-.69L12 2.75 3.99 7.38v9.24L12 21.25z" fill="#BE9A30"/>
</svg>
